<svg width="32" height="32" viewBox="0 0 32 32" fill="none" xmlns="http://www.w3.org/2000/svg">
<g opacity="0.6">
<rect x="0.5" y="0.5" width="31" height="31" rx="3.5" stroke="#515151"/>
<path d="M11.7539 23.6738V14.228H9.08701V23.6738H11.7539ZM10.4208 12.9376C11.3508 12.9376 11.9297 12.2123 11.9297 11.3059C11.9124 10.379 11.3508 9.67383 10.4385 9.67383C9.52623 9.67383 8.92969 10.379 8.92969 11.3059C8.92969 12.2123 9.50842 12.9376 10.4034 12.9376H10.4208Z" fill="#515151"/>
<path d="M13.9297 23.6738H16.8781V18.2174C16.8781 17.9254 16.8972 17.6337 16.9751 17.425C17.1882 16.8415 17.6733 16.2372 18.4878 16.2372C19.5547 16.2372 19.9815 17.1332 19.9815 18.4467V23.6738H22.9297V18.0714C22.9297 15.0702 21.4751 13.6738 19.5353 13.6738C17.9447 13.6738 17.2464 14.6531 16.8584 15.3201H16.8781V13.903H13.9298C13.9684 14.8198 13.9298 23.6737 13.9298 23.6737L13.9297 23.6738Z" fill="#515151"/>
</g>
</svg>
